<svg width="66" height="66" viewBox="0 0 66 66" fill="none" xmlns="http://www.w3.org/2000/svg">
<g filter="url(#filter0_d_125001_525)">
<path d="M30.4188 5.68891C31.827 4.22199 34.173 4.22199 35.5812 5.68891L36.5947 6.74477C37.4715 7.65813 38.7656 8.04013 39.9978 7.74926L41.4105 7.41581C43.3813 6.95059 45.3451 8.21223 45.7412 10.1981L46.0423 11.7076C46.2878 12.9383 47.1603 13.9505 48.3414 14.3748L49.7688 14.8877C51.6601 15.5671 52.6209 17.6705 51.8963 19.5449L51.3232 21.0275C50.874 22.1896 51.0616 23.5017 51.8186 24.4914L52.7804 25.7487C53.9987 27.3414 53.6704 29.6242 52.0526 30.8091L50.7973 31.7284C49.7894 32.4666 49.2395 33.6771 49.3467 34.9218L49.4816 36.4891C49.6545 38.4987 48.1331 40.2539 46.1194 40.3681L44.644 40.4518C43.3847 40.5232 42.2561 41.2523 41.6734 42.3709L40.9811 43.6997C40.0427 45.5011 37.7947 46.1609 36.0316 45.1525L34.7763 44.4346C33.6758 43.8051 32.3242 43.8051 31.2237 44.4346L29.9684 45.1525C28.2053 46.1609 25.9573 45.5011 25.0189 43.6997L24.3266 42.3709C23.7439 41.2523 22.6153 40.5232 21.356 40.4518L19.8806 40.3681C17.8669 40.2539 16.3455 38.4987 16.5184 36.4891L16.6533 34.9218C16.7605 33.6771 16.2106 32.4666 15.2027 31.7284L13.9474 30.8091C12.3296 29.6242 12.0013 27.3414 13.2196 25.7487L14.1814 24.4914C14.9384 23.5017 15.126 22.1896 14.6768 21.0275L14.1037 19.5449C13.3791 17.6705 14.3399 15.5671 16.2312 14.8877L17.6586 14.3748C18.8397 13.9505 19.7122 12.9383 19.9577 11.7076L20.2588 10.1981C20.6549 8.21223 22.6187 6.95059 24.5895 7.41581L26.0022 7.74926C27.2344 8.04013 28.5285 7.65813 29.4053 6.74477L30.4188 5.68891Z" fill="url(#paint0_linear_125001_525)"/>
<path d="M18.1353 25.3885C18.1353 16.9644 24.9644 10.1353 33.3886 10.1353V10.1353C41.8127 10.1353 48.6418 16.9644 48.6418 25.3885V25.7023C48.6418 34.1264 41.8127 40.9556 33.3886 40.9556V40.9556C24.9644 40.9556 18.1353 34.1264 18.1353 25.7023V25.3885Z" fill="black" fill-opacity="0.04"/>
<path d="M47.3059 25.3885V25.7023C47.3059 33.3886 41.0749 39.6196 33.3886 39.6196C25.7022 39.6196 19.4712 33.3886 19.4712 25.7023V25.3885C19.4712 17.7022 25.7022 11.4712 33.3886 11.4712C41.0749 11.4712 47.3059 17.7022 47.3059 25.3885Z" stroke="white" stroke-opacity="0.3" stroke-width="2.67181"/>
<g filter="url(#filter1_d_125001_525)">
<path d="M30.8252 28.3144L27.8964 25.3555C27.7387 25.1958 27.5247 25.106 27.3014 25.106C27.0781 25.106 26.864 25.1958 26.7064 25.3555C26.3772 25.688 26.3772 26.2252 26.7064 26.5578L30.2344 30.1221C30.5636 30.4547 31.0953 30.4547 31.4245 30.1221L40.3544 21.1004C40.6836 20.7679 40.6836 20.2306 40.3544 19.8981C40.1967 19.7384 39.9826 19.6487 39.7593 19.6487C39.5361 19.6487 39.322 19.7384 39.1643 19.8981L30.8252 28.3144Z" fill="white"/>
<path d="M30.8252 28.3144L27.8964 25.3555C27.7387 25.1958 27.5247 25.106 27.3014 25.106C27.0781 25.106 26.864 25.1958 26.7064 25.3555C26.3772 25.688 26.3772 26.2252 26.7064 26.5578L30.2344 30.1221C30.5636 30.4547 31.0953 30.4547 31.4245 30.1221L40.3544 21.1004C40.6836 20.7679 40.6836 20.2306 40.3544 19.8981C40.1967 19.7384 39.9826 19.6487 39.7593 19.6487C39.5361 19.6487 39.322 19.7384 39.1643 19.8981L30.8252 28.3144Z" stroke="#FDFDFD" stroke-width="0.534363"/>
</g>
<path d="M33.1431 11.7454C33.1431 10.8561 33.8661 10.1262 34.7501 10.2231C37.4061 10.5142 39.9483 11.5231 42.1064 13.1587C44.6968 15.1219 46.5958 17.8831 47.5213 21.0322C48.4469 24.1813 48.3497 27.5503 47.2441 30.6387C46.1385 33.7271 44.0835 36.3701 41.3844 38.1751C38.6853 39.9801 35.4861 40.8508 32.2621 40.6578C29.038 40.4649 25.9612 39.2186 23.4885 37.104C21.0159 34.9895 19.2794 32.1196 18.5371 28.9206C17.9164 26.2461 18.0184 23.4608 18.8176 20.8562C19.077 20.0111 20.0295 19.6384 20.8387 19.9946V19.9946C21.6333 20.3443 21.9882 21.2663 21.7538 22.1022C21.2008 24.0747 21.1493 26.1673 21.6164 28.1804C22.2023 30.705 23.5726 32.9698 25.524 34.6386C27.4753 36.3073 29.9035 37.2908 32.4478 37.4431C34.9921 37.5954 37.5169 36.9082 39.6469 35.4838C41.777 34.0593 43.3987 31.9735 44.2712 29.5363C45.1437 27.099 45.2205 24.4403 44.49 21.9551C43.7596 19.4699 42.2609 17.2908 40.2167 15.7416C38.605 14.5201 36.7219 13.7415 34.7481 13.4667C33.8674 13.3441 33.1431 12.6346 33.1431 11.7454V11.7454Z" fill="white" fill-opacity="0.5"/>
</g>
<defs>
<filter id="filter0_d_125001_525" x="-1" y="-1" width="68" height="68" filterUnits="userSpaceOnUse" color-interpolation-filters="sRGB">
<feFlood flood-opacity="0" result="BackgroundImageFix"/>
<feColorMatrix in="SourceAlpha" type="matrix" values="0 0 0 0 0 0 0 0 0 0 0 0 0 0 0 0 0 0 127 0" result="hardAlpha"/>
<feOffset dy="8"/>
<feGaussianBlur stdDeviation="6"/>
<feComposite in2="hardAlpha" operator="out"/>
<feColorMatrix type="matrix" values="0 0 0 0 0.983523 0 0 0 0 0.811406 0 0 0 0 0.904349 0 0 0 0.4 0"/>
<feBlend mode="normal" in2="BackgroundImageFix" result="effect1_dropShadow_125001_525"/>
<feBlend mode="normal" in="SourceGraphic" in2="effect1_dropShadow_125001_525" result="shape"/>
</filter>
<filter id="filter1_d_125001_525" x="17.1924" y="10.3816" width="32.6763" height="29.2571" filterUnits="userSpaceOnUse" color-interpolation-filters="sRGB">
<feFlood flood-opacity="0" result="BackgroundImageFix"/>
<feColorMatrix in="SourceAlpha" type="matrix" values="0 0 0 0 0 0 0 0 0 0 0 0 0 0 0 0 0 0 127 0" result="hardAlpha"/>
<feOffset/>
<feGaussianBlur stdDeviation="4.5"/>
<feComposite in2="hardAlpha" operator="out"/>
<feColorMatrix type="matrix" values="0 0 0 0 0.858824 0 0 0 0 0.992157 0 0 0 0 0.580392 0 0 0 0.25 0"/>
<feBlend mode="normal" in2="BackgroundImageFix" result="effect1_dropShadow_125001_525"/>
<feBlend mode="normal" in="SourceGraphic" in2="effect1_dropShadow_125001_525" result="shape"/>
</filter>
<linearGradient id="paint0_linear_125001_525" x1="18.7258" y1="7.1204" x2="42.8595" y2="45.1605" gradientUnits="userSpaceOnUse">
<stop stop-color="#D2E0ED"/>
<stop offset="0.109389" stop-color="#BFC8E7"/>
<stop offset="0.463563" stop-color="#CBCDFC"/>
<stop offset="0.739611" stop-color="#C3ADCB"/>
<stop offset="1" stop-color="#9699B5"/>
</linearGradient>
</defs>
</svg>
