<svg width="26.662598" height="25.559814" viewBox="0 0 26.6626 25.5598" fill="none" xmlns="http://www.w3.org/2000/svg" xmlns:xlink="http://www.w3.org/1999/xlink">
	<desc>
			Created with Pixso.
	</desc>
	<defs/>
	<path id="Vector" d="M23.24 20.72L24.52 23.67C24.75 24.21 25.4 24.47 25.97 24.24C26.54 24.02 26.81 23.4 26.57 22.85L25.29 19.9L23.24 20.72Z" fill="#000000" fill-opacity="1.000000" fill-rule="nonzero"/>
	<path id="Vector" d="M24.52 23.67C24.75 24.21 25.4 24.47 25.97 24.24C26.54 24.02 26.81 23.4 26.57 22.85L25.29 19.9L23.24 20.72L24.52 23.67Z" stroke="#000000" stroke-opacity="0" stroke-width="1.000000" stroke-linejoin="round"/>
	<path id="Vector" d="M24.09 22.68L26.15 21.87L24.09 22.68Z" fill="#000000" fill-opacity="1.000000" fill-rule="nonzero"/>
	<path id="Vector" d="M26.15 21.87L24.09 22.68L26.15 21.87Z" stroke="#000000" stroke-opacity="0" stroke-width="1.000000" stroke-linejoin="round"/>
	<path id="Vector" d="M20.54 14.49L23.45 15.64L20.54 14.49Z" fill="#000000" fill-opacity="1.000000" fill-rule="nonzero"/>
	<path id="Vector" d="M23.45 15.64L20.54 14.49L23.45 15.64Z" stroke="#000000" stroke-opacity="0" stroke-width="1.000000" stroke-linejoin="round"/>
	<path id="Vector" d="M22.12 8.51C22.12 10.08 20.79 11.35 19.16 11.35C17.52 11.35 16.19 10.08 16.19 8.51C16.19 6.94 17.52 5.67 19.16 5.67C20.79 5.67 22.12 6.94 22.12 8.51Z" fill="#000000" fill-opacity="1.000000" fill-rule="nonzero"/>
	<path id="Vector" d="M19.16 11.35C17.52 11.35 16.19 10.08 16.19 8.51C16.19 6.94 17.52 5.67 19.16 5.67C20.79 5.67 22.12 6.94 22.12 8.51C22.12 10.08 20.79 11.35 19.16 11.35Z" stroke="#000000" stroke-opacity="0" stroke-width="1.000000" stroke-linejoin="round"/>
	<path id="Vector" d="M20.64 8.51C20.64 9.3 19.97 9.93 19.15 9.93C18.33 9.93 17.67 9.3 17.67 8.51C17.67 7.73 18.33 7.09 19.15 7.09C19.97 7.09 20.64 7.73 20.64 8.51Z" fill="#000000" fill-opacity="1.000000" fill-rule="nonzero"/>
	<path id="Vector" d="M19.15 9.93C18.33 9.93 17.67 9.3 17.67 8.51C17.67 7.73 18.33 7.09 19.15 7.09C19.97 7.09 20.64 7.73 20.64 8.51C20.64 9.3 19.97 9.93 19.15 9.93Z" stroke="#000000" stroke-opacity="0" stroke-width="1.000000" stroke-linejoin="round"/>
	<path id="Vector" d="M17.07 10.53L13.01 19.9L11.99 24.11L12.68 24.38L15.07 20.72L15.64 19.41C15.19 18.38 15.7 17.21 16.77 16.78L19.13 11.35C18.33 11.34 17.6 11.03 17.07 10.53Z" fill="#000000" fill-opacity="1.000000" fill-rule="nonzero"/>
	<path id="Vector" d="M13.01 19.9L11.99 24.11L12.68 24.38L15.07 20.72L15.64 19.41C15.19 18.38 15.7 17.21 16.77 16.78L19.13 11.35C18.33 11.34 17.6 11.03 17.07 10.53L13.01 19.9Z" stroke="#000000" stroke-opacity="0" stroke-width="1.000000" stroke-linejoin="round"/>
	<path id="Vector" d="M21.24 10.53C20.7 11.03 19.98 11.34 19.18 11.35L22.67 19.41L24.73 18.59L21.24 10.53Z" fill="#000000" fill-opacity="1.000000" fill-rule="nonzero"/>
	<path id="Vector" d="M19.18 11.35L22.67 19.41L24.73 18.59L21.24 10.53C20.7 11.03 19.98 11.34 19.18 11.35Z" stroke="#000000" stroke-opacity="0" stroke-width="1.000000" stroke-linejoin="round"/>
	<path id="Vector" d="M20.27 4.25L20.27 1.06C20.27 0.47 19.77 0 19.15 0C18.54 0 18.04 0.47 18.04 1.06L18.04 4.25L20.27 4.25Z" fill="#000000" fill-opacity="1.000000" fill-rule="nonzero"/>
	<path id="Vector" d="M20.27 1.06C20.27 0.47 19.77 0 19.15 0C18.54 0 18.04 0.47 18.04 1.06L18.04 4.25L20.27 4.25L20.27 1.06Z" stroke="#000000" stroke-opacity="0" stroke-width="1.000000" stroke-linejoin="round"/>
	<path id="Vector" d="M19.15 5.67C19.34 5.67 19.53 5.69 19.71 5.72L19.71 4.25L18.6 4.25L18.6 5.72C18.78 5.69 18.96 5.67 19.15 5.67Z" fill="#000000" fill-opacity="1.000000" fill-rule="nonzero"/>
	<path id="Vector" d="M19.71 5.72L19.71 4.25L18.6 4.25L18.6 5.72C18.78 5.69 18.96 5.67 19.15 5.67C19.34 5.67 19.53 5.69 19.71 5.72Z" stroke="#000000" stroke-opacity="0" stroke-width="1.000000" stroke-linejoin="round"/>
	<path id="Vector" d="M3.7 25.55L0 25.55L0 0L3.7 0C4.52 0 5.18 0.63 5.18 1.42L5.18 24.14L5.18 24.14C5.18 24.92 4.52 25.55 3.7 25.55Z" fill="#000000" fill-opacity="1.000000" fill-rule="nonzero"/>
	<path id="Vector" d="M0 25.55L0 0L3.7 0C4.52 0 5.18 0.63 5.18 1.42L5.18 24.14L5.18 24.14C5.18 24.92 4.52 25.55 3.7 25.55L0 25.55Z" stroke="#000000" stroke-opacity="0" stroke-width="1.000000" stroke-linejoin="round"/>
	<path id="Vector" d="M0 1.06L1.11 1.06L0 1.06Z" fill="#000000" fill-opacity="1.000000" fill-rule="nonzero"/>
	<path id="Vector" d="M1.11 1.06L0 1.06L1.11 1.06Z" stroke="#000000" stroke-opacity="0" stroke-width="1.000000" stroke-linejoin="round"/>
	<path id="Vector" d="M0 2.13L1.11 2.13L0 2.13Z" fill="#000000" fill-opacity="1.000000" fill-rule="nonzero"/>
	<path id="Vector" d="M1.11 2.13L0 2.13L1.11 2.13Z" stroke="#000000" stroke-opacity="0" stroke-width="1.000000" stroke-linejoin="round"/>
	<path id="Vector" d="M0 3.19L1.11 3.19L0 3.19Z" fill="#000000" fill-opacity="1.000000" fill-rule="nonzero"/>
	<path id="Vector" d="M1.11 3.19L0 3.19L1.11 3.19Z" stroke="#000000" stroke-opacity="0" stroke-width="1.000000" stroke-linejoin="round"/>
	<path id="Vector" d="M0 4.26L1.85 4.26L0 4.26Z" fill="#000000" fill-opacity="1.000000" fill-rule="nonzero"/>
	<path id="Vector" d="M1.85 4.26L0 4.26L1.85 4.26Z" stroke="#000000" stroke-opacity="0" stroke-width="1.000000" stroke-linejoin="round"/>
	<path id="Vector" d="M0 5.32L1.11 5.32L0 5.32Z" fill="#000000" fill-opacity="1.000000" fill-rule="nonzero"/>
	<path id="Vector" d="M1.11 5.32L0 5.32L1.11 5.32Z" stroke="#000000" stroke-opacity="0" stroke-width="1.000000" stroke-linejoin="round"/>
	<path id="Vector" d="M0 6.39L1.11 6.39L0 6.39Z" fill="#000000" fill-opacity="1.000000" fill-rule="nonzero"/>
	<path id="Vector" d="M1.11 6.39L0 6.39L1.11 6.39Z" stroke="#000000" stroke-opacity="0" stroke-width="1.000000" stroke-linejoin="round"/>
	<path id="Vector" d="M0 7.45L1.11 7.45L0 7.45Z" fill="#000000" fill-opacity="1.000000" fill-rule="nonzero"/>
	<path id="Vector" d="M1.11 7.45L0 7.45L1.11 7.45Z" stroke="#000000" stroke-opacity="0" stroke-width="1.000000" stroke-linejoin="round"/>
	<path id="Vector" d="M0 8.52L1.85 8.52L0 8.52Z" fill="#000000" fill-opacity="1.000000" fill-rule="nonzero"/>
	<path id="Vector" d="M1.85 8.52L0 8.52L1.85 8.52Z" stroke="#000000" stroke-opacity="0" stroke-width="1.000000" stroke-linejoin="round"/>
	<path id="Vector" d="M0 9.58L1.11 9.58L0 9.58Z" fill="#000000" fill-opacity="1.000000" fill-rule="nonzero"/>
	<path id="Vector" d="M1.11 9.58L0 9.58L1.11 9.58Z" stroke="#000000" stroke-opacity="0" stroke-width="1.000000" stroke-linejoin="round"/>
	<path id="Vector" d="M0 10.65L1.11 10.65L0 10.65Z" fill="#000000" fill-opacity="1.000000" fill-rule="nonzero"/>
	<path id="Vector" d="M1.11 10.65L0 10.65L1.11 10.65Z" stroke="#000000" stroke-opacity="0" stroke-width="1.000000" stroke-linejoin="round"/>
	<path id="Vector" d="M0 11.71L1.11 11.71L0 11.71Z" fill="#000000" fill-opacity="1.000000" fill-rule="nonzero"/>
	<path id="Vector" d="M1.11 11.71L0 11.71L1.11 11.71Z" stroke="#000000" stroke-opacity="0" stroke-width="1.000000" stroke-linejoin="round"/>
	<path id="Vector" d="M0 12.78L1.85 12.78L0 12.78Z" fill="#000000" fill-opacity="1.000000" fill-rule="nonzero"/>
	<path id="Vector" d="M1.85 12.78L0 12.78L1.85 12.78Z" stroke="#000000" stroke-opacity="0" stroke-width="1.000000" stroke-linejoin="round"/>
	<path id="Vector" d="M0 13.84L1.11 13.84L0 13.84Z" fill="#000000" fill-opacity="1.000000" fill-rule="nonzero"/>
	<path id="Vector" d="M1.11 13.84L0 13.84L1.11 13.84Z" stroke="#000000" stroke-opacity="0" stroke-width="1.000000" stroke-linejoin="round"/>
	<path id="Vector" d="M0 14.91L1.11 14.91L0 14.91Z" fill="#000000" fill-opacity="1.000000" fill-rule="nonzero"/>
	<path id="Vector" d="M1.11 14.91L0 14.91L1.11 14.91Z" stroke="#000000" stroke-opacity="0" stroke-width="1.000000" stroke-linejoin="round"/>
	<path id="Vector" d="M0 15.97L1.11 15.97L0 15.97Z" fill="#000000" fill-opacity="1.000000" fill-rule="nonzero"/>
	<path id="Vector" d="M1.11 15.97L0 15.97L1.11 15.97Z" stroke="#000000" stroke-opacity="0" stroke-width="1.000000" stroke-linejoin="round"/>
	<path id="Vector" d="M0 17.04L1.85 17.04L0 17.04Z" fill="#000000" fill-opacity="1.000000" fill-rule="nonzero"/>
	<path id="Vector" d="M1.85 17.04L0 17.04L1.85 17.04Z" stroke="#000000" stroke-opacity="0" stroke-width="1.000000" stroke-linejoin="round"/>
	<path id="Vector" d="M0 18.1L1.11 18.1L0 18.1Z" fill="#000000" fill-opacity="1.000000" fill-rule="nonzero"/>
	<path id="Vector" d="M1.11 18.1L0 18.1L1.11 18.1Z" stroke="#000000" stroke-opacity="0" stroke-width="1.000000" stroke-linejoin="round"/>
	<path id="Vector" d="M0 19.17L1.11 19.17L0 19.17Z" fill="#000000" fill-opacity="1.000000" fill-rule="nonzero"/>
	<path id="Vector" d="M1.11 19.17L0 19.17L1.11 19.17Z" stroke="#000000" stroke-opacity="0" stroke-width="1.000000" stroke-linejoin="round"/>
	<path id="Vector" d="M0 20.23L1.11 20.23L0 20.23Z" fill="#000000" fill-opacity="1.000000" fill-rule="nonzero"/>
	<path id="Vector" d="M1.11 20.23L0 20.23L1.11 20.23Z" stroke="#000000" stroke-opacity="0" stroke-width="1.000000" stroke-linejoin="round"/>
	<path id="Vector" d="M0 21.3L1.85 21.3L0 21.3Z" fill="#000000" fill-opacity="1.000000" fill-rule="nonzero"/>
	<path id="Vector" d="M1.85 21.3L0 21.3L1.85 21.3Z" stroke="#000000" stroke-opacity="0" stroke-width="1.000000" stroke-linejoin="round"/>
	<path id="Vector" d="M0 22.36L1.11 22.36L0 22.36Z" fill="#000000" fill-opacity="1.000000" fill-rule="nonzero"/>
	<path id="Vector" d="M1.11 22.36L0 22.36L1.11 22.36Z" stroke="#000000" stroke-opacity="0" stroke-width="1.000000" stroke-linejoin="round"/>
	<path id="Vector" d="M0 23.43L1.11 23.43L0 23.43Z" fill="#000000" fill-opacity="1.000000" fill-rule="nonzero"/>
	<path id="Vector" d="M1.11 23.43L0 23.43L1.11 23.43Z" stroke="#000000" stroke-opacity="0" stroke-width="1.000000" stroke-linejoin="round"/>
	<path id="Vector" d="M0 24.49L1.11 24.49L0 24.49Z" fill="#000000" fill-opacity="1.000000" fill-rule="nonzero"/>
	<path id="Vector" d="M1.11 24.49L0 24.49L1.11 24.49Z" stroke="#000000" stroke-opacity="0" stroke-width="1.000000" stroke-linejoin="round"/>
	<path id="Vector" d="M3.51 2.13C3.82 2.13 4.07 1.89 4.07 1.59C4.07 1.3 3.82 1.06 3.51 1.06C3.21 1.06 2.96 1.3 2.96 1.59C2.96 1.89 3.21 2.13 3.51 2.13Z" fill="#000000" fill-opacity="1.000000" fill-rule="nonzero"/>
	<path id="Vector" d="M4.07 1.59C4.07 1.3 3.82 1.06 3.51 1.06C3.21 1.06 2.96 1.3 2.96 1.59C2.96 1.89 3.21 2.13 3.51 2.13C3.82 2.13 4.07 1.89 4.07 1.59Z" stroke="#000000" stroke-opacity="0" stroke-width="1.000000" stroke-linejoin="round"/>
	<path id="Vector" d="M8.88 3.55L-2.66 3.55L8.88 3.55Z" fill="#000000" fill-opacity="1.000000" fill-rule="nonzero"/>
	<path id="Vector" d="M8.88 15.08L8.88 3.55L8.88 15.08Z" stroke="#000000" stroke-opacity="0" stroke-width="1.000000" stroke-linejoin="round"/>
	<path id="Vector" d="M7.77 15.08C7.77 15.38 8.02 15.62 8.33 15.62C8.63 15.62 8.88 15.38 8.88 15.08C8.88 15.38 9.13 15.62 9.44 15.62C9.75 15.62 9.99 15.38 9.99 15.08C9.99 15.38 9.75 15.62 9.44 15.62C9.13 15.62 8.88 15.38 8.88 15.08C8.88 15.38 8.63 15.62 8.33 15.62C8.02 15.62 7.77 15.38 7.77 15.08Z" fill="#000000" fill-opacity="1.000000" fill-rule="nonzero"/>
	<path id="Vector" d="M8.33 15.62C8.02 15.62 7.77 15.38 7.77 15.08C7.77 15.38 8.02 15.62 8.33 15.62C8.63 15.62 8.88 15.38 8.88 15.08M8.88 15.08C8.88 15.38 9.13 15.62 9.44 15.62C9.75 15.62 9.99 15.38 9.99 15.08C9.99 15.38 9.75 15.62 9.44 15.62M9.44 15.62C9.13 15.62 8.88 15.38 8.88 15.08M8.88 15.08C8.88 15.38 8.63 15.62 8.33 15.62" stroke="#000000" stroke-opacity="0" stroke-width="1.000000" stroke-linejoin="round"/>
	<path id="Vector" d="M8.51 0C8.1 0 7.77 0.31 7.77 0.71L7.77 0.71L7.77 15.62L8.88 19.88L9.99 15.62L9.99 0.71L9.99 0.71C9.99 0.31 9.66 0 9.25 0L8.51 0Z" fill="#000000" fill-opacity="1.000000" fill-rule="nonzero"/>
	<path id="Vector" d="M7.77 0.71L7.77 0.71L7.77 15.62L8.88 19.88L9.99 15.62L9.99 0.71L9.99 0.71C9.99 0.31 9.66 0 9.25 0L8.51 0C8.1 0 7.77 0.31 7.77 0.71Z" stroke="#000000" stroke-opacity="0" stroke-width="1.000000" stroke-linejoin="round"/>
	<path id="Vector" d="M7.77 2.13L9.99 2.13L7.77 2.13Z" fill="#000000" fill-opacity="1.000000" fill-rule="nonzero"/>
	<path id="Vector" d="M9.99 2.13L7.77 2.13L9.99 2.13Z" stroke="#000000" stroke-opacity="0" stroke-width="1.000000" stroke-linejoin="round"/>
	<path id="Vector" d="M7.77 3.55L9.99 3.55L7.77 3.55Z" fill="#000000" fill-opacity="1.000000" fill-rule="nonzero"/>
	<path id="Vector" d="M9.99 3.55L7.77 3.55L9.99 3.55Z" stroke="#000000" stroke-opacity="0" stroke-width="1.000000" stroke-linejoin="round"/>
</svg>
