<svg width="145" height="94" viewBox="0 0 145 94" fill="none" xmlns="http://www.w3.org/2000/svg">
<path d="M93.4631 47.4472L96.1674 54.1254C96.6672 55.3563 98.0433 55.9385 99.2438 55.4271C100.447 54.9209 101.017 53.5113 100.518 52.2798L97.8148 45.6038L93.4631 47.4472Z" fill="white"/>
<path d="M95.2671 51.8986L99.618 50.0551L95.2671 51.8986Z" fill="white"/>
<path d="M87.7571 33.3518L93.9107 35.959L87.7571 33.3518Z" fill="white"/>
<path d="M91.1057 19.8146C91.1057 23.3634 88.295 26.2396 84.8294 26.2396C81.3602 26.2396 78.5488 23.3634 78.5488 19.8146C78.5488 16.2665 81.3602 13.3917 84.8294 13.3917C88.2943 13.3917 91.1057 16.2665 91.1057 19.8146Z" fill="white"/>
<path d="M87.9659 19.8146C87.9659 21.5901 86.5615 23.0286 84.8287 23.0286C83.0938 23.0286 81.686 21.5901 81.686 19.8146C81.686 18.0406 83.0938 16.6022 84.8287 16.6022C86.5615 16.6014 87.9659 18.0406 87.9659 19.8146Z" fill="white"/>
<path d="M80.4248 24.394L71.8357 45.6045L69.6826 55.1228L71.1327 55.7375L76.188 47.4479L77.3908 44.4813C76.4524 42.1619 77.5275 39.5027 79.794 38.5438L84.7744 26.2375C83.0805 26.2231 81.5479 25.523 80.4248 24.394Z" fill="white"/>
<path d="M89.2292 24.3926C88.1054 25.523 86.5714 26.2231 84.8774 26.2368L92.2655 44.4777L96.6151 42.635L89.2292 24.3926Z" fill="white"/>
<path d="M87.1819 10.1786V2.95004C87.1811 1.61788 86.1236 0.540283 84.8273 0.540283C83.5266 0.540283 82.4727 1.61642 82.4719 2.95004L82.4727 10.1786H87.1819Z" fill="white"/>
<path d="M84.8286 13.3917C85.2298 13.3917 85.6231 13.4329 86.0038 13.5068V10.1792H83.6499V13.5068C84.0321 13.4322 84.4233 13.3917 84.8286 13.3917Z" fill="white"/>
<path d="M52.1341 58.3953H44.302V0.538818H52.1355C53.8662 0.538818 55.2683 1.97874 55.2683 3.75424V55.1828H55.2677C55.2669 56.9584 53.8648 58.3953 52.1341 58.3953Z" fill="white"/>
<path d="M51.7435 5.36115C52.3925 5.36115 52.9187 4.82139 52.9187 4.15555C52.9187 3.48972 52.3925 2.94995 51.7435 2.94995C51.0945 2.94995 50.5684 3.48972 50.5684 4.15555C50.5684 4.82139 51.0945 5.36115 51.7435 5.36115Z" fill="white"/>
<path d="M60.7507 34.6932C60.7507 35.3565 61.2774 35.8981 61.9259 35.8981C62.5751 35.8981 63.1011 35.3565 63.1011 34.6932C63.1011 35.3565 63.6284 35.8981 64.2762 35.8981C64.9255 35.8981 65.4513 35.3565 65.4513 34.6932C65.4513 35.3565 64.9255 35.8981 64.2762 35.8981C63.6284 35.8981 63.1011 35.3565 63.1011 34.6932C63.1011 35.3565 62.5751 35.8981 61.9259 35.8981C61.2774 35.8981 60.7507 35.3565 60.7507 34.6932Z" fill="white"/>
<path d="M62.3179 0.538818C61.4535 0.538818 60.7507 1.25986 60.7507 2.14797V2.14724V35.8975L63.1003 45.5401L65.4507 35.8975V2.14653V2.14724C65.4507 1.26059 64.7486 0.539541 63.8836 0.539541L62.3179 0.538818Z" fill="white"/>
<path d="M5.9 79.6159H10.36C10.9867 79.6159 11.4133 79.7692 11.64 80.0759C11.8667 80.3825 11.98 80.8492 11.98 81.4759V90.1359C11.98 90.8025 11.8733 91.2825 11.66 91.5759C11.4467 91.8692 10.9933 92.0159 10.3 92.0159H5.9V79.6159ZM9.26 90.6559C9.66 90.6559 9.92667 90.5759 10.06 90.4159C10.1933 90.2559 10.26 89.9759 10.26 89.5759V82.0359C10.26 81.6759 10.1867 81.4092 10.04 81.2359C9.89333 81.0625 9.66667 80.9759 9.36 80.9759H7.62V90.6559H9.26ZM16.4344 79.6159H18.1544V92.0159H16.4344V79.6159ZM25.7295 92.1159C25.0495 92.1159 24.4762 92.0492 24.0095 91.9159C23.5562 91.7692 23.2095 91.5425 22.9695 91.2359C22.7429 90.9292 22.6295 90.5292 22.6295 90.0359V81.6759C22.6295 80.8359 22.8895 80.2692 23.4095 79.9759C23.9295 79.6692 24.6962 79.5159 25.7095 79.5159C26.6829 79.5159 27.4295 79.6692 27.9495 79.9759C28.4695 80.2825 28.7295 80.8559 28.7295 81.6959V83.6359L27.0095 83.7359V82.0159C27.0095 81.5625 26.9029 81.2692 26.6895 81.1359C26.4895 80.9892 26.1695 80.9159 25.7295 80.9159C25.2895 80.9159 24.9495 80.9892 24.7095 81.1359C24.4695 81.2692 24.3495 81.5559 24.3495 81.9959V89.7759C24.3495 90.0425 24.4029 90.2425 24.5095 90.3759C24.6295 90.4959 24.7895 90.5825 24.9895 90.6359C25.2029 90.6759 25.4562 90.6959 25.7495 90.6959C26.0295 90.6959 26.2629 90.6759 26.4495 90.6359C26.6495 90.5825 26.8029 90.4959 26.9095 90.3759C27.0162 90.2425 27.0695 90.0425 27.0695 89.7759V86.7959H25.4295L25.5495 85.3559H28.7295V90.0359C28.7295 90.5292 28.6095 90.9292 28.3695 91.2359C28.1429 91.5425 27.8029 91.7692 27.3495 91.9159C26.9095 92.0492 26.3695 92.1159 25.7295 92.1159ZM33.1281 79.6159H34.8481V92.0159H33.1281V79.6159ZM41.0233 80.9759H38.8633V79.6159H44.9233V80.9759H42.7433V92.0159H41.0233V80.9759ZM46.8963 92.0159L49.4963 79.6159H51.5563L54.1163 92.0159H52.3363L51.7763 89.2159L52.0763 89.4959H48.8963L49.1562 89.2159L48.6363 92.0159H46.8963ZM49.2163 88.3159L49.0563 88.1159H51.9763L51.7363 88.3159L50.6563 81.8959L50.6163 81.6159H50.3963L50.3563 81.8959L49.2163 88.3159ZM58.0906 79.6159H59.8106V90.6759H63.5906V92.0159H58.0906V79.6159ZM73.5539 79.6159H77.8139C78.3872 79.6159 78.8072 79.6892 79.0739 79.8359C79.3539 79.9692 79.5339 80.1825 79.6139 80.4759C79.7072 80.7559 79.7539 81.1092 79.7539 81.5359V84.6559C79.7539 85.1359 79.7139 85.5892 79.6339 86.0159C79.5539 86.4292 79.3472 86.7692 79.0139 87.0359C78.6806 87.2892 78.1339 87.4159 77.3739 87.4159H75.2739V92.0159H73.5539V79.6159ZM76.8339 86.0559C77.2339 86.0559 77.5339 85.9492 77.7339 85.7359C77.9339 85.5225 78.0339 85.1559 78.0339 84.6359V82.2959C78.0339 81.7625 77.9606 81.4092 77.8139 81.2359C77.6672 81.0625 77.3939 80.9759 76.9939 80.9759H75.2739V86.0559H76.8339ZM83.9125 79.6159H88.1725C88.7458 79.6159 89.1658 79.6892 89.4325 79.8359C89.7125 79.9692 89.8925 80.1825 89.9725 80.4759C90.0658 80.7559 90.1125 81.1092 90.1125 81.5359V83.9959C90.1125 84.4759 90.0725 84.9292 89.9925 85.3559C89.9125 85.7692 89.7058 86.1092 89.3725 86.3759C89.0392 86.6292 88.4925 86.7559 87.7325 86.7559H85.6325V92.0159H83.9125V79.6159ZM89.0725 92.3559L86.8125 86.6359L87.9925 86.5759L88.4725 86.7159L88.5525 86.8359L90.6725 91.7359L89.0725 92.3559ZM87.1925 85.3959C87.5925 85.3959 87.8925 85.2892 88.0925 85.0759C88.2925 84.8625 88.3925 84.4959 88.3925 83.9759V82.2959C88.3925 81.7625 88.3192 81.4092 88.1725 81.2359C88.0258 81.0625 87.7525 80.9759 87.3525 80.9759H85.6325V85.3959H87.1925ZM97.4445 92.1159C96.4179 92.1159 95.6512 91.9292 95.1445 91.5559C94.6512 91.1825 94.4045 90.6625 94.4045 89.9959V81.5359C94.4045 80.9225 94.6379 80.4225 95.1045 80.0359C95.5845 79.6359 96.3645 79.4425 97.4445 79.4559C98.5379 79.4692 99.3179 79.6692 99.7845 80.0559C100.265 80.4292 100.505 80.9292 100.505 81.5559V89.9959C100.505 90.6492 100.258 91.1692 99.7645 91.5559C99.2712 91.9292 98.4979 92.1159 97.4445 92.1159ZM97.4445 90.6959C97.9379 90.6959 98.2912 90.5959 98.5045 90.3959C98.7179 90.1825 98.8245 89.9025 98.8245 89.5559V81.9759C98.8245 81.6425 98.7245 81.3759 98.5245 81.1759C98.3379 80.9625 97.9712 80.8559 97.4245 80.8559C96.9179 80.8559 96.5645 80.9625 96.3645 81.1759C96.1779 81.3759 96.0845 81.6359 96.0845 81.9559V89.5559C96.0845 89.9159 96.1912 90.1959 96.4045 90.3959C96.6179 90.5959 96.9645 90.6959 97.4445 90.6959ZM104.282 92.0159L104.042 90.6559H105.062C105.315 90.6559 105.495 90.6225 105.602 90.5559C105.708 90.4892 105.768 90.3559 105.782 90.1559C105.808 89.9559 105.822 89.6492 105.822 89.2359V79.6159H107.542V89.7759C107.542 90.3625 107.502 90.8225 107.422 91.1559C107.355 91.4759 107.182 91.7025 106.902 91.8359C106.622 91.9559 106.182 92.0159 105.582 92.0159H104.282ZM112.059 79.6159H117.939V80.9759H113.779V84.4759H117.559L117.339 85.8159H113.779V90.6759H117.939V92.0159H112.059V79.6159ZM125.044 92.1559C124.017 92.1559 123.25 91.9625 122.744 91.5759C122.25 91.1892 122.004 90.6425 122.004 89.9359V81.8559C122.004 81.0292 122.237 80.4292 122.704 80.0559C123.184 79.6692 123.944 79.4759 124.984 79.4759C126.024 79.4759 126.797 79.6625 127.304 80.0359C127.81 80.4092 128.064 81.0225 128.064 81.8759V84.5359L126.364 84.7559V82.2959C126.364 81.8425 126.277 81.4959 126.104 81.2559C125.93 81.0025 125.57 80.8759 125.024 80.8759C124.504 80.8759 124.157 81.0092 123.984 81.2759C123.824 81.5292 123.744 81.8625 123.744 82.2759V89.5359C123.744 89.8825 123.837 90.1692 124.024 90.3959C124.21 90.6225 124.544 90.7359 125.024 90.7359C125.517 90.7359 125.864 90.6225 126.064 90.3959C126.264 90.1692 126.364 89.8825 126.364 89.5359V87.2159L128.064 87.0159V89.9359C128.064 90.6425 127.804 91.1892 127.284 91.5759C126.764 91.9625 126.017 92.1559 125.044 92.1559ZM133.984 80.9759H131.824V79.6159H137.884V80.9759H135.704V92.0159H133.984V80.9759Z" fill="white"/>
</svg>
