<svg width="69" height="42" viewBox="0 0 69 42" fill="none" xmlns="http://www.w3.org/2000/svg">
<g clip-path="url(#clip0_568_165)">
<path d="M44.1865 20.9611L45.465 23.9114C45.7013 24.4552 46.3519 24.7124 46.9195 24.4865C47.4881 24.2629 47.7577 23.6401 47.5221 23.0961L46.2439 20.1467L44.1865 20.9611Z" fill="#333333"/>
<path d="M45.0396 22.9277L47.0965 22.1133L45.0396 22.9277Z" fill="#333333"/>
<path d="M41.489 14.7341L44.3983 15.8859L41.489 14.7341Z" fill="#333333"/>
<path d="M43.072 8.75375C43.072 10.3215 41.7432 11.5922 40.1048 11.5922C38.4646 11.5922 37.1355 10.3215 37.1355 8.75375C37.1355 7.18627 38.4646 5.91626 40.1048 5.91626C41.7429 5.91626 43.072 7.18627 43.072 8.75375Z" fill="#333333"/>
<path d="M41.5876 8.75367C41.5876 9.53804 40.9236 10.1735 40.1044 10.1735C39.2842 10.1735 38.6187 9.53804 38.6187 8.75367C38.6187 7.96995 39.2842 7.33447 40.1044 7.33447C40.9236 7.33412 41.5876 7.96995 41.5876 8.75367Z" fill="#333333"/>
<path d="M38.0225 10.7769L33.9617 20.1472L32.9438 24.3522L33.6294 24.6237L36.0194 20.9616L36.588 19.651C36.1444 18.6263 36.6527 17.4515 37.7242 17.0279L40.0788 11.5913C39.278 11.5849 38.5534 11.2756 38.0225 10.7769Z" fill="#333333"/>
<path d="M42.1848 10.7761C41.6535 11.2755 40.9283 11.5848 40.1274 11.5909L43.6203 19.6493L45.6767 18.8353L42.1848 10.7761Z" fill="#333333"/>
<path d="M41.217 4.49677V1.30335C41.2166 0.714829 40.7166 0.23877 40.1038 0.23877C39.4889 0.23877 38.9906 0.714186 38.9902 1.30335L38.9906 4.49677H41.217Z" fill="#333333"/>
<path d="M40.1046 5.91605C40.2943 5.91605 40.4802 5.93426 40.6602 5.96687V4.49683H39.5474V5.96687C39.728 5.93394 39.913 5.91605 40.1046 5.91605Z" fill="#333333"/>
<path d="M24.6474 25.7978H20.9446V0.238037H24.648C25.4662 0.238037 26.1291 0.874166 26.1291 1.65854V24.3786H26.1288C26.1285 25.163 25.4656 25.7978 24.6474 25.7978Z" fill="#333333"/>
<path d="M24.4628 2.36844C24.7696 2.36844 25.0184 2.12998 25.0184 1.83583C25.0184 1.54168 24.7696 1.30322 24.4628 1.30322C24.156 1.30322 23.9072 1.54168 23.9072 1.83583C23.9072 2.12998 24.156 2.36844 24.4628 2.36844Z" fill="#333333"/>
<path d="M28.7212 15.3267C28.7212 15.6197 28.9702 15.8589 29.2768 15.8589C29.5837 15.8589 29.8324 15.6197 29.8324 15.3267C29.8324 15.6197 30.0817 15.8589 30.3879 15.8589C30.6949 15.8589 30.9435 15.6197 30.9435 15.3267C30.9435 15.6197 30.6949 15.8589 30.3879 15.8589C30.0817 15.8589 29.8324 15.6197 29.8324 15.3267C29.8324 15.6197 29.5837 15.8589 29.2768 15.8589C28.9702 15.8589 28.7212 15.6197 28.7212 15.3267Z" fill="#333333"/>
<path d="M29.4621 0.238037C29.0534 0.238037 28.7212 0.55658 28.7212 0.948927V0.948606V15.8588L29.832 20.1187L30.9432 15.8588V0.94829V0.948606C30.9432 0.556899 30.6113 0.238356 30.2023 0.238356L29.4621 0.238037Z" fill="#333333"/>
<path d="M1.45 34.8H3.68C3.99333 34.8 4.20667 34.8767 4.32 35.03C4.43333 35.1833 4.49 35.4167 4.49 35.73V40.06C4.49 40.3933 4.43667 40.6333 4.33 40.78C4.22333 40.9267 3.99667 41 3.65 41H1.45V34.8ZM3.13 40.32C3.33 40.32 3.46333 40.28 3.53 40.2C3.59667 40.12 3.63 39.98 3.63 39.78V36.01C3.63 35.83 3.59333 35.6967 3.52 35.61C3.44667 35.5233 3.33333 35.48 3.18 35.48H2.31V40.32H3.13ZM6.71719 34.8H7.57719V41H6.71719V34.8ZM11.3648 41.05C11.0248 41.05 10.7381 41.0167 10.5048 40.95C10.2781 40.8767 10.1048 40.7633 9.98477 40.61C9.87143 40.4567 9.81477 40.2567 9.81477 40.01V35.83C9.81477 35.41 9.94477 35.1267 10.2048 34.98C10.4648 34.8267 10.8481 34.75 11.3548 34.75C11.8414 34.75 12.2148 34.8267 12.4748 34.98C12.7348 35.1333 12.8648 35.42 12.8648 35.84V36.81L12.0048 36.86V36C12.0048 35.7733 11.9514 35.6267 11.8448 35.56C11.7448 35.4867 11.5848 35.45 11.3648 35.45C11.1448 35.45 10.9748 35.4867 10.8548 35.56C10.7348 35.6267 10.6748 35.77 10.6748 35.99V39.88C10.6748 40.0133 10.7014 40.1133 10.7548 40.18C10.8148 40.24 10.8948 40.2833 10.9948 40.31C11.1014 40.33 11.2281 40.34 11.3748 40.34C11.5148 40.34 11.6314 40.33 11.7248 40.31C11.8248 40.2833 11.9014 40.24 11.9548 40.18C12.0081 40.1133 12.0348 40.0133 12.0348 39.88V38.39H11.2148L11.2748 37.67H12.8648V40.01C12.8648 40.2567 12.8048 40.4567 12.6848 40.61C12.5714 40.7633 12.4014 40.8767 12.1748 40.95C11.9548 41.0167 11.6848 41.05 11.3648 41.05ZM15.0641 34.8H15.9241V41H15.0641V34.8ZM19.0116 35.48H17.9316V34.8H20.9616V35.48H19.8716V41H19.0116V35.48ZM21.9481 41L23.2481 34.8H24.2781L25.5581 41H24.6681L24.3881 39.6L24.5381 39.74H22.9481L23.0781 39.6L22.8181 41H21.9481ZM23.1081 39.15L23.0281 39.05H24.4881L24.3681 39.15L23.8281 35.94L23.8081 35.8H23.6981L23.6781 35.94L23.1081 39.15ZM27.5453 34.8H28.4053V40.33H30.2953V41H27.5453V34.8ZM35.277 34.8H37.407C37.6936 34.8 37.9036 34.8367 38.037 34.91C38.177 34.9767 38.267 35.0833 38.307 35.23C38.3536 35.37 38.377 35.5467 38.377 35.76V37.32C38.377 37.56 38.357 37.7867 38.317 38C38.277 38.2067 38.1736 38.3767 38.007 38.51C37.8403 38.6367 37.567 38.7 37.187 38.7H36.137V41H35.277V34.8ZM36.917 38.02C37.117 38.02 37.267 37.9667 37.367 37.86C37.467 37.7533 37.517 37.57 37.517 37.31V36.14C37.517 35.8733 37.4803 35.6967 37.407 35.61C37.3336 35.5233 37.197 35.48 36.997 35.48H36.137V38.02H36.917ZM40.4562 34.8H42.5862C42.8729 34.8 43.0829 34.8367 43.2162 34.91C43.3562 34.9767 43.4462 35.0833 43.4862 35.23C43.5329 35.37 43.5562 35.5467 43.5562 35.76V36.99C43.5562 37.23 43.5362 37.4567 43.4962 37.67C43.4562 37.8767 43.3529 38.0467 43.1862 38.18C43.0196 38.3067 42.7462 38.37 42.3662 38.37H41.3162V41H40.4562V34.8ZM43.0362 41.17L41.9062 38.31L42.4962 38.28L42.7362 38.35L42.7762 38.41L43.8362 40.86L43.0362 41.17ZM42.0962 37.69C42.2962 37.69 42.4462 37.6367 42.5462 37.53C42.6462 37.4233 42.6962 37.24 42.6962 36.98V36.14C42.6962 35.8733 42.6596 35.6967 42.5862 35.61C42.5129 35.5233 42.3762 35.48 42.1762 35.48H41.3162V37.69H42.0962ZM47.2223 41.05C46.7089 41.05 46.3256 40.9567 46.0723 40.77C45.8256 40.5833 45.7023 40.3233 45.7023 39.99V35.76C45.7023 35.4533 45.8189 35.2033 46.0523 35.01C46.2923 34.81 46.6823 34.7133 47.2223 34.72C47.7689 34.7267 48.1589 34.8267 48.3923 35.02C48.6323 35.2067 48.7523 35.4567 48.7523 35.77V39.99C48.7523 40.3167 48.6289 40.5767 48.3823 40.77C48.1356 40.9567 47.7489 41.05 47.2223 41.05ZM47.2223 40.34C47.4689 40.34 47.6456 40.29 47.7523 40.19C47.8589 40.0833 47.9123 39.9433 47.9123 39.77V35.98C47.9123 35.8133 47.8623 35.68 47.7623 35.58C47.6689 35.4733 47.4856 35.42 47.2123 35.42C46.9589 35.42 46.7823 35.4733 46.6823 35.58C46.5889 35.68 46.5423 35.81 46.5423 35.97V39.77C46.5423 39.95 46.5956 40.09 46.7023 40.19C46.8089 40.29 46.9823 40.34 47.2223 40.34ZM50.6409 41L50.5209 40.32H51.0309C51.1575 40.32 51.2475 40.3033 51.3009 40.27C51.3542 40.2367 51.3842 40.17 51.3909 40.07C51.4042 39.97 51.4109 39.8167 51.4109 39.61V34.8H52.2709V39.88C52.2709 40.1733 52.2509 40.4033 52.2109 40.57C52.1775 40.73 52.0909 40.8433 51.9509 40.91C51.8109 40.97 51.5909 41 51.2909 41H50.6409ZM54.5293 34.8H57.4693V35.48H55.3893V37.23H57.2793L57.1693 37.9H55.3893V40.33H57.4693V41H54.5293V34.8ZM61.0219 41.07C60.5085 41.07 60.1252 40.9733 59.8719 40.78C59.6252 40.5867 59.5019 40.3133 59.5019 39.96V35.92C59.5019 35.5067 59.6185 35.2067 59.8519 35.02C60.0919 34.8267 60.4719 34.73 60.9919 34.73C61.5119 34.73 61.8985 34.8233 62.1519 35.01C62.4052 35.1967 62.5319 35.5033 62.5319 35.93V37.26L61.6819 37.37V36.14C61.6819 35.9133 61.6385 35.74 61.5519 35.62C61.4652 35.4933 61.2852 35.43 61.0119 35.43C60.7519 35.43 60.5785 35.4967 60.4919 35.63C60.4119 35.7567 60.3719 35.9233 60.3719 36.13V39.76C60.3719 39.9333 60.4185 40.0767 60.5119 40.19C60.6052 40.3033 60.7719 40.36 61.0119 40.36C61.2585 40.36 61.4319 40.3033 61.5319 40.19C61.6319 40.0767 61.6819 39.9333 61.6819 39.76V38.6L62.5319 38.5V39.96C62.5319 40.3133 62.4019 40.5867 62.1419 40.78C61.8819 40.9733 61.5085 41.07 61.0219 41.07ZM65.4921 35.48H64.4121V34.8H67.4421V35.48H66.3521V41H65.4921V35.48Z" fill="black"/>
</g>
<defs>
<clipPath id="clip0_568_165">
<rect width="68.5517" height="41.5272" fill="white"/>
</clipPath>
</defs>
</svg>
