<svg width="14.000000" height="19.000000" viewBox="0 0 14 19" fill="none" xmlns="http://www.w3.org/2000/svg" xmlns:xlink="http://www.w3.org/1999/xlink">
	<desc>
			Created with Pixso.
	</desc>
	<defs>
		<clipPath id="clip1_114">
			<rect id="pininterest" width="14.000000" height="19.000000" fill="white" fill-opacity="0"/>
		</clipPath>
	</defs>
	<rect id="pininterest" width="14.000000" height="19.000000" fill="#FFFFFF" fill-opacity="0"/>
	<g clip-path="url(#clip1_114)">
		<path id="Shape" d="M7.42407 0C2.48901 0 0.000976562 3.52197 0.000976562 6.45996C0.000976562 8.23804 0.677002 9.81995 2.12793 10.41C2.36597 10.507 2.57886 10.413 2.64795 10.151C2.69604 9.96997 2.81006 9.51196 2.85986 9.32104C2.92993 9.06201 2.90308 8.97095 2.71094 8.745C2.29199 8.25403 2.0249 7.61804 2.0249 6.71704C2.0249 4.104 3.98901 1.76501 7.13892 1.76501C9.92798 1.76501 11.46 3.46204 11.46 5.72705C11.46 8.70898 10.135 11.225 8.16699 11.225C7.08105 11.225 6.26807 10.33 6.52808 9.23303C6.84106 7.92395 7.44507 6.51001 7.44507 5.56396C7.44507 4.71802 6.98901 4.01196 6.04395 4.01196C4.93408 4.01196 4.04199 5.15601 4.04199 6.68799C4.04199 7.66504 4.37305 8.32495 4.37305 8.32495C4.37305 8.32495 3.23608 13.119 3.03687 13.959C2.63989 15.631 2.97803 17.681 3.00586 17.889C3.02295 18.011 3.18091 18.04 3.25293 17.948C3.35498 17.814 4.67798 16.189 5.12793 14.564C5.25488 14.104 5.85791 11.722 5.85791 11.722C6.21899 12.407 7.27393 13.011 8.39502 13.011C11.7339 13.011 13.999 9.97998 13.999 5.92395C13.999 2.85706 11.3899 0 7.42407 0Z" fill="#FFFFFF" fill-opacity="1.000000" fill-rule="evenodd"/>
	</g>
</svg>
