<svg width="22.000000" height="17.000000" viewBox="0 0 22 17" fill="none" xmlns="http://www.w3.org/2000/svg" xmlns:xlink="http://www.w3.org/1999/xlink">
	<desc>
			Created with Pixso.
	</desc>
	<defs>
		<clipPath id="clip1_105">
			<rect id="twitter" width="22.000000" height="17.000000" fill="white" fill-opacity="0"/>
		</clipPath>
	</defs>
	<rect id="twitter" width="22.000000" height="17.000000" fill="#FFFFFF" fill-opacity="0"/>
	<g clip-path="url(#clip1_105)">
		<path id="Shape" d="M21.0081 1.896C20.2351 2.21802 19.4041 2.43298 18.533 2.53101C19.4231 2.03101 20.106 1.23901 20.428 0.296997C19.594 0.759033 18.6721 1.09497 17.6899 1.27698C16.905 0.490967 15.7839 0.000976562 14.5449 0.000976562C12.165 0.000976562 10.2339 1.80994 10.2339 4.03992C10.2339 4.35693 10.272 4.66602 10.3459 4.96094C6.76392 4.79199 3.58789 3.18396 1.46191 0.740967C1.09106 1.33801 0.878906 2.03101 0.878906 2.77197C0.878906 4.172 1.63989 5.41003 2.7959 6.13403C2.09009 6.11194 1.42603 5.93103 0.843994 5.62793C0.843994 5.646 0.843994 5.66101 0.843994 5.67993C0.843994 7.63696 2.3291 9.26892 4.30103 9.64001C3.93994 9.73193 3.55811 9.78003 3.16602 9.78003C2.88794 9.78003 2.61792 9.75598 2.35498 9.70996C2.90308 11.313 4.49512 12.4819 6.3811 12.515C4.90601 13.598 3.0481 14.2429 1.02808 14.2429C0.679932 14.2429 0.336914 14.224 0 14.187C1.90698 15.332 4.1731 16.002 6.60693 16.002C14.5349 16.002 18.8701 9.84595 18.8701 4.50903C18.8701 4.33301 18.865 4.16003 18.8569 3.98596C19.699 3.41602 20.4299 2.70496 21.0081 1.896Z" fill="#FFFFFF" fill-opacity="1.000000" fill-rule="evenodd"/>
	</g>
</svg>
